<?xml version="1.0" standalone="no"?>
<!DOCTYPE svg PUBLIC "-//W3C//DTD SVG 20010904//EN"
 "http://www.w3.org/TR/2001/REC-SVG-20010904/DTD/svg10.dtd">
<svg version="1.0" xmlns="http://www.w3.org/2000/svg"
 width="3000.000000pt" height="1080.000000pt" viewBox="0 0 3000.000000 1080.000000"
 preserveAspectRatio="xMidYMid meet">

<g transform="translate(0.000000,1080.000000) scale(0.100000,-0.100000)"
fill="#000000" stroke="none">
<path d="M25126 9469 c-13 -8 -57 -10 -155 -5 -128 7 -149 5 -341 -28 -335
-59 -454 -102 -622 -229 -128 -96 -198 -188 -224 -294 -8 -32 -21 -74 -30 -93
-10 -25 -14 -61 -12 -120 l3 -85 430 -3 c288 -1 439 1 456 8 14 6 41 36 60 66
88 143 127 174 268 213 118 33 247 44 444 38 206 -6 353 -30 478 -78 68 -26
77 -33 83 -60 8 -40 -20 -97 -62 -125 -18 -13 -64 -27 -105 -34 -39 -6 -106
-18 -147 -26 -41 -9 -183 -35 -315 -60 -132 -24 -275 -53 -317 -64 -43 -11
-104 -20 -136 -20 -39 0 -104 -13 -193 -39 -384 -113 -635 -240 -808 -410 -91
-88 -103 -109 -135 -231 -14 -49 -32 -105 -41 -122 -28 -58 -34 -452 -6 -496
6 -10 301 -15 1457 -24 797 -6 1496 -11 1554 -10 117 0 220 9 237 20 18 11 29
623 13 734 l-12 87 -131 -2 c-95 -1 -139 2 -156 12 -49 27 -448 37 -562 14
l-29 -5 7 -104 c4 -71 2 -117 -7 -149 l-13 -46 -506 6 c-278 3 -598 5 -710 5
-208 -2 -294 4 -321 20 -12 8 -9 15 20 45 67 69 180 107 470 155 102 17 239
42 305 55 66 13 246 40 400 60 554 71 725 111 918 212 86 46 193 143 230 211
80 147 75 370 -13 548 -32 66 -55 96 -118 155 -164 154 -411 242 -800 285
-181 20 -779 30 -806 13z"/>
<path d="M8350 7059 c-18 -7 -844 -10 -2805 -9 -2798 1 -3027 -2 -3355 -36
-607 -62 -1010 -214 -1296 -486 -184 -177 -297 -392 -339 -651 -20 -122 -21
-436 -1 -538 55 -287 240 -506 609 -723 64 -38 117 -74 117 -81 0 -23 -38 -46
-112 -69 -93 -28 -300 -136 -431 -223 -275 -182 -451 -453 -553 -848 -26 -100
-29 -125 -29 -275 2 -497 168 -912 470 -1173 114 -99 238 -177 410 -262 354
-173 671 -255 1185 -310 367 -38 388 -38 4235 -36 l3740 3 30 28 c17 15 40 33
53 39 l23 12 -1 902 c-1 655 2 911 10 935 l12 32 8151 0 c5043 0 8227 -4 8349
-10 388 -19 620 -74 745 -176 46 -38 88 -107 79 -130 -5 -13 -473 -14 -3543
-9 -1946 3 -3626 6 -3733 7 -107 0 -208 -4 -225 -9 l-30 -9 -3 -565 c-2 -310
0 -583 3 -606 l6 -43 3842 -2 3842 -3 5 -140 c6 -157 17 -190 80 -232 l33 -23
921 0 921 1 41 38 42 39 3 874 4 873 -23 89 c-102 402 -432 797 -779 932 -40
15 -73 33 -73 39 0 6 51 37 113 68 343 176 587 442 691 752 84 250 77 589 -19
879 -94 289 -232 494 -430 644 -81 61 -306 175 -449 227 -215 79 -528 167
-621 175 -49 5 -180 20 -290 35 -151 21 -266 29 -465 35 -146 4 -3849 10
-8230 14 -4381 3 -8626 8 -9435 11 -1036 4 -1477 2 -1495 -6z m-1956 -1373
l34 -14 7 -226 c7 -223 3 -321 -17 -403 l-10 -43 -1593 0 c-1593 0 -1683 2
-1796 35 -112 32 -202 102 -245 191 -46 94 -33 250 26 318 55 62 230 135 329
137 25 0 55 4 66 9 11 5 728 9 1593 9 1327 1 1578 -1 1606 -13z m12511 -100
c8041 -1 8373 -2 8445 -19 93 -23 185 -64 231 -105 44 -39 93 -129 109 -203
19 -86 9 -254 -18 -305 -53 -103 -212 -199 -353 -215 -46 -5 -94 -14 -107 -19
-25 -11 -16816 -15 -16869 -4 -17 3 -34 13 -38 22 -13 34 -18 656 -6 745 17
128 6 119 130 111 58 -3 3872 -7 8476 -8z m-12518 -1962 c25 -4 34 -11 39 -30
4 -14 7 -181 8 -372 1 -305 -1 -355 -17 -411 -10 -36 -19 -66 -20 -67 -1 -2
-761 -4 -1687 -4 -1177 -1 -1708 2 -1760 9 -229 34 -352 100 -412 223 -35 71
-48 149 -48 283 l0 112 88 85 c117 113 182 145 323 160 70 8 635 13 1724 17
1572 6 1694 5 1762 -5z m21367 -948 c30 -7 46 -46 46 -111 l0 -55 -117 -1
c-551 -4 -7042 3 -7060 7 -21 6 -23 12 -23 65 0 32 5 68 10 81 l11 23 3556 -2
c1955 -1 3565 -4 3577 -7z m29 -462 c26 -6 27 -8 27 -74 0 -38 -3 -75 -6 -84
-6 -15 -333 -16 -3605 -16 l-3599 0 0 79 c0 54 4 82 14 90 9 8 915 12 3392 14
3510 3 3731 3 3777 -9z"/>
<path d="M13195 3031 c-11 -5 -50 -10 -87 -10 -75 -1 -303 -48 -389 -80 -223
-84 -382 -345 -366 -598 19 -277 203 -483 497 -557 183 -46 452 -56 827 -30
l93 7 88 -87 c49 -47 96 -86 106 -86 9 0 31 7 49 16 45 24 227 204 227 226 0
10 -18 36 -41 57 -40 40 -40 40 -24 71 9 17 22 33 29 36 32 12 112 208 130
319 9 50 -7 157 -36 245 -86 268 -272 402 -630 454 -126 19 -445 30 -473 17z
m345 -337 c180 -32 282 -111 305 -237 8 -42 -2 -155 -15 -176 -13 -22 -59 2
-116 60 -27 28 -57 49 -69 49 -35 0 -105 -54 -187 -144 -78 -85 -91 -113 -63
-136 8 -7 15 -24 15 -38 l0 -25 -87 5 c-49 3 -125 15 -171 27 -229 59 -300
132 -310 318 l-5 93 39 56 c59 86 92 110 176 129 40 9 87 23 103 30 38 18 258
11 385 -11z"/>
<path d="M10987 2959 c-9 -5 -56 -17 -105 -25 -107 -19 -209 -69 -253 -126
-45 -56 -69 -143 -69 -245 l0 -86 65 -73 c125 -139 168 -147 935 -184 154 -7
224 -25 255 -66 39 -51 -5 -110 -104 -138 -178 -50 -545 -31 -631 32 -14 10
-35 43 -47 73 l-22 54 -88 8 c-94 9 -333 3 -370 -8 -19 -6 -23 -14 -23 -51 0
-55 33 -143 74 -197 62 -82 190 -146 366 -183 117 -25 650 -32 773 -10 50 9
135 22 187 31 186 28 292 76 343 154 41 61 51 118 44 244 l-7 111 -43 55 c-53
68 -112 100 -252 137 -103 27 -120 29 -595 53 -236 12 -268 16 -332 43 -58 25
-61 44 -13 87 49 43 121 62 261 68 201 10 360 -22 411 -81 59 -66 58 -66 278
-66 110 0 211 3 224 7 22 6 23 10 18 58 -18 171 -183 281 -484 320 -136 18
-766 21 -796 4z"/>
<path d="M14443 2958 c-13 -21 -16 -290 -4 -463 22 -327 97 -501 263 -612 138
-92 306 -130 623 -140 298 -9 444 15 607 99 82 42 202 145 238 203 25 41 77
190 90 260 13 64 18 525 7 587 -13 79 -12 78 -230 77 -106 -1 -203 -4 -217 -8
l-25 -7 -8 -339 -9 -338 -53 -72 c-43 -58 -62 -76 -105 -94 -125 -54 -328 -70
-450 -35 -58 16 -74 27 -151 101 l-87 84 -7 72 c-4 40 -10 196 -13 347 l-7
275 -55 7 c-105 12 -398 9 -407 -4z"/>
<path d="M17590 2929 c-20 -6 -154 -7 -321 -4 l-285 6 -26 -38 c-14 -21 -64
-114 -111 -208 -47 -93 -161 -291 -252 -440 -92 -148 -186 -311 -210 -361 -23
-50 -47 -94 -53 -98 -6 -3 -8 -15 -5 -26 5 -20 12 -20 235 -18 l230 3 57 105
c54 101 58 105 96 112 22 4 203 7 403 7 283 1 370 -2 395 -13 39 -16 75 -61
117 -147 l32 -64 311 -4 c172 -2 362 -4 422 -5 61 0 127 3 148 7 l37 8 0 173
c0 95 5 187 10 203 l11 30 203 7 c281 10 406 -3 454 -47 32 -30 59 -136 65
-256 3 -57 9 -107 14 -112 12 -12 326 -17 375 -6 l36 8 7 117 c9 139 -5 265
-36 329 -14 28 -42 61 -75 87 -67 51 -71 76 -15 98 29 12 48 30 76 73 36 57
37 60 37 159 1 169 -32 217 -177 261 -197 60 -189 60 -823 60 l-583 0 -6 -24
c-3 -13 -6 -273 -7 -577 -1 -408 -4 -556 -13 -565 -9 -9 -18 1 -39 42 -14 30
-62 108 -104 174 -43 66 -129 217 -192 335 -64 118 -134 245 -156 282 -23 37
-58 100 -78 140 -50 100 -90 156 -127 179 -18 10 -34 18 -37 18 -3 -1 -21 -5
-40 -10z m-213 -279 c39 -23 72 -74 120 -183 19 -45 49 -102 65 -126 18 -27
28 -54 26 -70 l-3 -26 -213 -3 c-127 -1 -229 2 -252 8 l-39 11 20 51 c42 106
166 318 201 342 29 20 36 20 75 -4z m2072 -8 c47 -16 81 -50 81 -81 0 -14 -9
-44 -19 -67 -28 -62 -61 -68 -381 -69 -189 0 -271 3 -286 12 -18 10 -22 25
-27 100 -5 67 -3 91 8 103 12 13 54 15 302 14 180 -1 301 -5 322 -12z"/>
</g>
</svg>
